<svg width="32" height="33" viewBox="0 0 32 33" fill="none" xmlns="http://www.w3.org/2000/svg">
<path d="M28.8002 3.86646H3.2002V29.4665H28.8002V3.86646Z" fill="#1093D5"/>
<path d="M10.7408 9.09661C10.1417 9.09597 9.7155 9.32637 9.45246 9.84605C9.0851 9.29693 8.77534 9.09341 8.12766 9.09213C7.54846 9.09149 7.1235 9.25597 6.81054 9.77117V9.58621C6.8099 9.31165 6.58718 9.08957 6.31326 9.08893L5.5523 9.08765L5.5459 13.4607C5.54654 13.7353 5.76862 13.958 6.04254 13.9574L6.80286 13.9587L6.80862 10.8739C6.81246 10.454 7.15486 10.1167 7.57342 10.1199C7.99262 10.1238 8.3299 10.4668 8.32606 10.886L8.32222 13.4646C8.32222 13.7391 8.5443 13.9612 8.81822 13.9612L9.57982 13.9625L9.5843 10.9014C9.5907 10.4732 9.94142 10.1315 10.3689 10.1379C10.7888 10.1436 11.1273 10.4835 11.1318 10.9039L11.128 13.4691C11.1286 13.7436 11.3513 13.9663 11.6253 13.9657L12.3593 13.967L12.3645 10.6787C12.3664 9.79229 11.6995 9.09789 10.7408 9.09661Z" fill="white"/>
<path d="M21.3498 9.39363C20.9332 9.21571 20.4865 9.11971 20.0333 9.11011C17.9668 9.10691 17.5898 10.2007 17.5879 11.5389C17.586 12.8784 17.9591 13.9722 20.0263 13.9754C20.5012 13.969 20.9735 13.9076 21.4343 13.7924C21.4849 13.7892 21.5246 13.7488 21.5284 13.6983C21.5284 13.6612 21.4356 12.9508 21.4356 12.9508C21.4337 12.9008 21.394 12.8599 21.3434 12.858C20.914 12.9725 20.4717 13.0346 20.0276 13.0429C18.9466 13.041 18.713 12.3946 18.7143 11.5415C18.7156 10.6916 18.8583 10.0452 20.0327 10.0471C20.6887 10.0484 21.3946 10.3306 21.4407 10.3306C21.49 10.3338 21.5316 10.296 21.5348 10.2468C21.5348 10.2429 21.5348 10.2391 21.5348 10.2352C21.5348 10.1975 21.442 9.48579 21.442 9.48579C21.4273 9.44227 21.3934 9.40835 21.3498 9.39363Z" fill="white"/>
<path d="M25.9574 9.11975L25.3763 9.11911L25.3756 9.54215C25.0723 9.25031 24.5897 9.11783 24.1513 9.11719C22.7427 9.11527 21.8019 9.86215 21.7993 11.546C21.7968 13.2305 22.735 13.9805 24.1436 13.9825C24.8323 13.9837 25.2105 13.7175 25.3724 13.5581C25.4064 13.8052 25.6169 13.9889 25.8659 13.9889L26.4476 13.9895L26.454 9.61127C26.4515 9.33863 26.23 9.11911 25.9574 9.11975ZM24.1443 13.0493C23.2067 13.0474 22.9238 12.4842 22.9251 11.5479C22.9264 10.6109 23.2112 10.0516 24.1488 10.0528C25.0864 10.0541 25.3699 10.6167 25.3686 11.5511C25.3673 12.4861 25.0838 13.0506 24.1443 13.0493Z" fill="white"/>
<path d="M14.9807 9.10303C13.5714 9.10111 12.63 9.84735 12.6274 11.5318C12.6249 13.2163 13.5638 13.967 14.973 13.9689C16.3823 13.9708 17.3199 13.2246 17.3225 11.5388C17.325 9.85311 16.3887 9.10495 14.9807 9.10303ZM14.975 13.0352C14.0335 13.0339 13.7545 12.4707 13.7558 11.5337C13.757 10.5974 14.0374 10.0374 14.9794 10.0387C15.917 10.0399 16.1986 10.6025 16.1967 11.5369C16.1954 12.472 15.9132 13.0364 14.975 13.0352Z" fill="white"/>
<path d="M28.8002 29.4664H3.2002V18.1538H28.8002V29.4664Z" fill="#00B14F"/>
<path d="M8.55931 23.7416C8.55931 24.9102 9.44123 25.8056 10.5804 25.8056C11.6774 25.8056 12.2291 25.0958 12.2291 24.3144V24.0347H10.6303V24.4648H11.7913C11.7983 24.8878 11.4111 25.3826 10.5798 25.3826C9.66202 25.3826 9.02459 24.7016 9.02459 23.741C9.02459 22.8162 9.71259 22.1211 10.6591 22.1211C11.2755 22.1211 11.7631 22.2715 12.2143 22.587L12.2431 22.5653V22.164C11.9065 21.9272 11.3331 21.6981 10.6444 21.6981C9.47707 21.6987 8.55931 22.6024 8.55931 23.7416ZM7.89307 23.7416C7.89307 25.2898 9.03995 26.4437 10.5811 26.4437C11.9859 26.4437 12.846 25.5618 12.846 24.1358V23.405H10.631V23.821H12.4441V24.2082C12.4441 25.3262 11.7491 26.0213 10.5804 26.0213C9.29723 26.0213 8.34427 25.0395 8.34427 23.7422C8.34427 22.4808 9.34779 21.4843 10.6451 21.4843C11.2614 21.4843 11.8207 21.6347 12.2438 21.9285V21.5054C11.8355 21.2117 11.2979 21.0613 10.6451 21.0613C9.08987 21.0613 7.89307 22.244 7.89307 23.7416ZM13.7561 24.107V26.3221H14.1791V24.1147C14.1791 23.62 14.5017 23.2686 14.9817 23.2686C15.1251 23.2686 15.2543 23.3045 15.39 23.3621C15.4476 23.2258 15.5046 23.1112 15.5763 23.0037C15.4259 22.9032 15.2038 22.8386 14.9887 22.8386C14.2649 22.8386 13.7561 23.3621 13.7561 24.107ZM13.1321 26.3221H13.5551V24.107C13.5551 23.2328 14.1427 22.6376 14.9958 22.6376C15.2825 22.6376 15.5763 22.731 15.7055 22.8098C15.7843 22.7163 15.8707 22.6165 15.9852 22.523C15.7203 22.3368 15.3619 22.2293 14.9747 22.2293C13.8495 22.2293 13.1327 22.989 13.1327 24.1141V26.3221H13.1321ZM19.7625 23.8421V24.4654C20.0134 24.1288 20.2284 23.8344 20.4294 23.5912C20.9382 22.9678 21.383 22.6235 22.071 22.6235C23.0028 22.6235 23.6838 23.3262 23.6838 24.315C23.6838 25.2827 23.0169 26.0213 22.0998 26.0213C21.3542 26.0213 20.7091 25.5125 20.5587 24.8168L20.2579 25.2251C20.4947 25.9061 21.1897 26.4437 22.0927 26.4437C23.2537 26.4437 24.1068 25.5118 24.1068 24.315C24.1068 23.1035 23.2467 22.1934 22.071 22.1934C20.8518 22.1934 20.2931 23.1042 19.7625 23.8421ZM21.0745 24.1576H21.0604L20.7308 24.6094C20.7884 25.1253 21.3113 25.8139 22.0998 25.8139C22.9023 25.8139 23.4835 25.1618 23.4835 24.3086C23.4835 23.4555 22.8883 22.8251 22.0716 22.8251C21.2761 22.8251 20.8172 23.4056 20.4947 23.8357C20.3372 24.0437 20.0646 24.3803 19.7638 24.8034V25.4914C20.0435 25.0754 20.423 24.5883 20.7027 24.251C21.1756 23.6846 21.4623 23.2546 22.0646 23.2546C22.6521 23.2546 23.054 23.7064 23.054 24.308C23.054 24.9314 22.6739 25.3902 22.1004 25.3902C21.4982 25.3902 21.0751 24.8386 21.0751 24.2216V24.1576H21.0745ZM20.6515 20.6882V22.4731C20.7807 22.3726 20.9241 22.251 21.0745 22.1934V20.6882H20.6515ZM20.0204 23.1253C20.1497 22.9602 20.2931 22.781 20.4435 22.6306V20.6882H20.0204V23.1253ZM18.3001 25.1682L18.2931 25.1611C18.1139 25.3045 17.8201 25.3902 17.5404 25.3902C16.967 25.3902 16.5369 24.9602 16.5369 24.3221C16.5369 23.7128 16.9599 23.2469 17.5263 23.2469C18.1356 23.2469 18.5081 23.691 18.5081 24.2862V26.3221H18.9311V24.2651C18.9311 23.4338 18.3507 22.8245 17.5334 22.8245C16.7231 22.8245 16.0998 23.4338 16.0998 24.3227C16.0998 25.2046 16.7161 25.835 17.5334 25.8139C17.8419 25.8069 18.1567 25.6923 18.3001 25.5918V25.1682ZM15.4617 24.315C15.4617 25.5624 16.3436 26.4437 17.5334 26.4437C17.7983 26.4437 18.1068 26.365 18.3001 26.2146V25.7915C18.1708 25.899 17.8559 26.0206 17.5334 26.0206C16.5587 26.0206 15.8988 25.3326 15.8988 24.3144C15.8988 23.3467 16.6015 22.6229 17.5334 22.6229C18.4582 22.6229 19.1321 23.3038 19.1321 24.2574V26.3214H19.5622V24.2504C19.5622 23.0606 18.7238 22.1864 17.534 22.1864C16.3647 22.1864 15.4617 23.1112 15.4617 24.315Z" fill="white"/>
</svg>
