<svg width="68" height="33" viewBox="0 0 68 33" fill="none" xmlns="http://www.w3.org/2000/svg">
<g clip-path="url(#clip0_1_2080)">
<path d="M3.27822 10.3093H1.54327C0.77827 10.3093 0.460938 9.7046 0.460938 9.11498C0.460938 8.50835 0.858548 7.91968 1.54327 7.91968H7.39883C8.0826 7.91968 8.48116 8.50835 8.48116 9.11498C8.48116 9.7046 8.16288 10.3093 7.39883 10.3093H5.66671V19.0024C5.66671 19.867 5.15766 20.3508 4.47199 20.3508C3.78633 20.3508 3.27822 19.867 3.27822 19.0024V10.3093Z" fill="#1AA7FF"/>
<path d="M10.063 9.26596C10.063 8.40705 10.6117 7.92798 11.3493 7.92798C12.0869 7.92798 12.6357 8.40705 12.6357 9.26596V19.0135C12.6357 19.8706 12.0869 20.3506 11.3493 20.3506C10.6117 20.3506 10.063 19.8706 10.063 19.0135V9.26596Z" fill="#1AA7FF"/>
<path d="M14.1055 9.19624C14.1055 8.49418 14.6192 7.92819 15.3918 7.92819C16.1294 7.92819 16.6772 8.40725 16.6772 9.19624V12.904L20.897 8.40725C21.0196 8.26174 21.1716 8.14383 21.343 8.06127C21.5144 7.9787 21.7013 7.93335 21.8915 7.92819C22.0561 7.92518 22.2196 7.95482 22.3727 8.01539C22.5258 8.07596 22.6653 8.16626 22.7833 8.28107C22.9013 8.39589 22.9955 8.53295 23.0602 8.68435C23.125 8.83575 23.1592 8.99849 23.1608 9.16317C23.1608 9.60822 22.886 9.97012 22.3212 10.5352L19.0789 13.727L23.0456 17.8638C23.4564 18.2748 23.7652 18.6528 23.7652 19.1659C23.7652 19.9728 23.1296 20.3498 22.427 20.3498C21.9302 20.3498 21.6044 20.0598 21.1236 19.5448L16.6847 14.739V19.1158C16.6847 19.7857 16.17 20.3498 15.3994 20.3498C14.6608 20.3498 14.113 19.8708 14.113 19.1158L14.1055 9.19624Z" fill="#1AA7FF"/>
<path d="M25.1299 9.26892C25.1299 8.41095 25.6795 7.93188 26.4162 7.93188C27.1529 7.93188 27.7026 8.41095 27.7026 9.26892V19.0108C27.7026 19.8669 27.1529 20.3469 26.4162 20.3469C25.6795 20.3469 25.1299 19.8669 25.1299 19.0108V9.26892Z" fill="#1AA7FF"/>
<path d="M11.2284 6.26221C10.9207 6.26245 10.616 6.20202 10.3316 6.08435C10.0473 5.96669 9.78892 5.7941 9.5713 5.57646C9.35368 5.35883 9.18108 5.10041 9.06336 4.81598C8.94563 4.53155 8.8851 4.2267 8.88523 3.91885C8.88558 3.70158 8.91576 3.48537 8.97495 3.27632H13.479C13.5796 3.62508 13.5977 3.99249 13.5317 4.34944C13.4658 4.70639 13.3176 5.04307 13.0991 5.33281C12.8805 5.62254 12.5975 5.85737 12.2725 6.01869C11.9474 6.18001 11.5893 6.26338 11.2265 6.26221H11.2284ZM11.2265 0.666504C10.6213 0.666504 10.0298 0.846032 9.52656 1.18239C9.02336 1.51875 8.63116 1.99683 8.39952 2.55619C8.16789 3.11554 8.10724 3.73106 8.22523 4.3249C8.34323 4.91874 8.63457 5.46425 9.06242 5.89244C9.49028 6.32063 10.0354 6.61228 10.6289 6.73052C11.2225 6.84875 11.8377 6.78826 12.3969 6.55669C12.956 6.32512 13.434 5.93287 13.7703 5.42953C14.1067 4.9262 14.2863 4.33439 14.2865 3.72893C14.2867 3.32677 14.2078 2.92851 14.0541 2.55691C13.9004 2.18531 13.675 1.84766 13.3909 1.56325C13.1067 1.27884 12.7693 1.05325 12.3979 0.899381C12.0265 0.745513 11.6285 0.66638 11.2265 0.666504Z" fill="#1AA7FF"/>
<path d="M26.3037 6.2622C25.9962 6.2622 25.6917 6.20159 25.4075 6.08381C25.1234 5.96603 24.8653 5.79341 24.6479 5.57579C24.4304 5.35818 24.258 5.09984 24.1404 4.81554C24.0228 4.53124 23.9623 4.22654 23.9624 3.91885C23.9625 3.70162 23.9923 3.48541 24.0512 3.27632H28.5543C28.616 3.48495 28.6478 3.70128 28.6488 3.91885C28.6488 4.22667 28.5882 4.53146 28.4704 4.81583C28.3526 5.1002 28.18 5.35857 27.9624 5.57618C27.7448 5.7938 27.4865 5.96639 27.2022 6.0841C26.918 6.20181 26.6133 6.26233 26.3056 6.2622H26.3037ZM26.3056 0.666504C25.7004 0.666504 25.1089 0.846032 24.6057 1.18239C24.1025 1.51875 23.7103 1.99683 23.4786 2.55619C23.247 3.11554 23.1863 3.73106 23.3043 4.3249C23.4223 4.91874 23.7137 5.46425 24.1415 5.89244C24.5694 6.32063 25.1145 6.61228 25.7081 6.73052C26.3016 6.84875 26.9168 6.78826 27.476 6.55669C28.0351 6.32512 28.5131 5.93287 28.8495 5.42953C29.1858 4.9262 29.3654 4.33439 29.3656 3.72893C29.3656 2.91688 29.0433 2.13809 28.4694 1.5638C27.8956 0.989513 27.1173 0.666754 26.3056 0.666504Z" fill="#1AA7FF"/>
<path d="M30.4963 9.65527V19.9953C30.4991 20.0539 30.4899 20.1124 30.4694 20.1674C30.4488 20.2223 30.4174 20.2725 30.3769 20.315C30.3364 20.3574 30.2878 20.3912 30.2339 20.4143C30.1799 20.4373 30.1219 20.4492 30.0633 20.4492C30.0047 20.4492 29.9466 20.4373 29.8927 20.4143C29.8388 20.3912 29.7902 20.3574 29.7497 20.315C29.7092 20.2725 29.6778 20.2223 29.6572 20.1674C29.6367 20.1124 29.6275 20.0539 29.6303 19.9953V8.40989C29.6024 8.32201 29.6031 8.22756 29.6323 8.14011C29.6615 8.05266 29.7176 7.97674 29.7927 7.92326C29.8891 7.85888 30.0066 7.83415 30.1208 7.85421C30.2349 7.87428 30.337 7.93759 30.4057 8.03098L38.0557 18.6422V8.35603C38.0557 8.23875 38.1022 8.12627 38.1851 8.04334C38.268 7.9604 38.3804 7.91382 38.4977 7.91382C38.6149 7.91382 38.7273 7.9604 38.8102 8.04334C38.8931 8.12627 38.9397 8.23875 38.9397 8.35603V19.9953C38.9369 20.1126 38.8879 20.224 38.8033 20.3053C38.7187 20.3866 38.6055 20.431 38.4882 20.429C38.4223 20.4306 38.357 20.4168 38.2975 20.3885C38.2379 20.3603 38.1858 20.3185 38.1454 20.2665C38.1274 20.2485 38.0915 20.2296 38.0736 20.1937L30.4963 9.65527Z" fill="#1AA7FF"/>
<path d="M47.0722 7.87695C50.4722 7.87695 53.146 10.688 53.1639 14.153C53.146 17.6179 50.4732 20.429 47.0722 20.429C43.6354 20.429 40.9447 17.6179 40.9258 14.153C40.9447 10.688 43.6354 7.87695 47.0722 7.87695ZM47.0722 19.5625C49.8744 19.5625 52.2355 17.1757 52.2544 14.1577C52.2365 11.0991 49.8725 8.7661 47.0722 8.7661C44.1813 8.7661 41.8173 11.0991 41.8173 14.1577C41.8173 17.1757 44.1813 19.5625 47.0722 19.5625Z" fill="#1AA7FF"/>
<path d="M54.7927 8.11523L57.1698 18.8522L60.634 8.90611C60.702 8.74359 60.8229 8.63493 60.9476 8.63493C61.0251 8.6407 61.099 8.66965 61.1598 8.71801C61.2206 8.76638 61.2655 8.83191 61.2885 8.90611L64.9388 18.8522L67.111 8.11523C67.1932 7.89885 67.3708 7.79019 67.5615 7.89885C67.7259 7.98862 67.8071 8.2598 67.7259 8.47618L65.2524 20.1334C65.2338 20.2002 65.1992 20.2614 65.1517 20.3118C65.1041 20.3622 65.045 20.4002 64.9794 20.4226H64.9114C64.8805 20.4225 64.8499 20.416 64.8216 20.4035C64.7933 20.391 64.7679 20.3727 64.7471 20.3498C64.7249 20.3294 64.7067 20.305 64.6933 20.278C64.671 20.2439 64.6527 20.2075 64.6385 20.1694C64.6406 20.1503 64.6355 20.1311 64.6243 20.1155L60.9608 10.1326L57.4834 20.1155C57.4836 20.1475 57.474 20.1788 57.456 20.2053C57.4431 20.252 57.4198 20.2953 57.388 20.3319C57.3738 20.3319 57.3606 20.3498 57.3606 20.3498C57.3356 20.374 57.306 20.393 57.2736 20.4055C57.2411 20.418 57.2065 20.4238 57.1717 20.4226C57.133 20.4214 57.0948 20.4124 57.0596 20.3962C57.0244 20.3799 56.9928 20.3568 56.9668 20.3281L56.9394 20.2922L56.9262 20.2742C56.8808 20.2103 56.8525 20.1358 56.844 20.0579L54.192 8.47618C54.1108 8.2598 54.192 7.98862 54.3563 7.89885C54.5197 7.79019 54.7247 7.89885 54.7927 8.11523Z" fill="#1AA7FF"/>
<path d="M63.5224 23.708H4.47761C2.00469 23.708 0 25.7135 0 28.1873C0 30.6612 2.00469 32.6666 4.47761 32.6666H63.5224C65.9953 32.6666 68 30.6612 68 28.1873C68 25.7135 65.9953 23.708 63.5224 23.708Z" fill="#1AA7FF"/>
<path d="M4.06113 29.2828H5.04997C5.04731 29.3725 5.06505 29.4617 5.10187 29.5435C5.13868 29.6254 5.19359 29.6978 5.26247 29.7553C5.40158 29.8703 5.57793 29.9304 5.7583 29.9244C5.84465 29.9249 5.93038 29.9099 6.01141 29.88C6.09173 29.8497 6.16524 29.8038 6.22769 29.7449C6.29109 29.6861 6.3413 29.6145 6.375 29.5348C6.4087 29.4552 6.42513 29.3693 6.42319 29.2828C6.42849 29.1245 6.38098 28.9689 6.28814 28.8406C6.19476 28.7318 6.07999 28.6433 5.95097 28.5808C5.815 28.5183 5.67526 28.4643 5.53258 28.4192C5.37191 28.3698 5.21423 28.3111 5.06036 28.2434C4.9065 28.1702 4.76653 28.0707 4.64669 27.9496C4.52097 27.8194 4.42184 27.666 4.35486 27.4979C4.32009 27.4133 4.29321 27.3257 4.27458 27.2362C4.25584 27.148 4.24666 27.058 4.24719 26.9678C4.24242 26.773 4.2794 26.5795 4.35564 26.4002C4.43188 26.2209 4.54561 26.0601 4.68919 25.9284C4.9743 25.6543 5.35637 25.5045 5.75169 25.5117C5.94566 25.5105 6.13795 25.5477 6.31742 25.6214C6.49689 25.695 6.65996 25.8035 6.79719 25.9407C6.93985 26.0698 7.05358 26.2276 7.1309 26.4038C7.20822 26.5801 7.24738 26.7707 7.2458 26.9631H6.27114C6.27186 26.8913 6.25685 26.8203 6.22715 26.755C6.19745 26.6897 6.15379 26.6317 6.09925 26.5851C5.99031 26.4838 5.84658 26.4283 5.69786 26.4302C5.62964 26.4278 5.56173 26.4403 5.4988 26.4667C5.43586 26.4931 5.3794 26.5329 5.3333 26.5832C5.23956 26.6896 5.19021 26.828 5.19541 26.9697C5.193 27.0923 5.23606 27.2115 5.3163 27.3042C5.41075 27.4119 5.58389 27.5064 5.83575 27.5877C6.13041 27.6885 6.30482 27.7514 6.35897 27.7766C6.52889 27.8485 6.68786 27.9439 6.83119 28.0601C7.00842 28.1974 7.15021 28.3752 7.24469 28.5785C7.33917 28.7819 7.3836 29.0049 7.37425 29.229C7.37766 29.4433 7.33604 29.6561 7.2521 29.8533C7.16815 30.0506 7.04374 30.228 6.88691 30.3742C6.733 30.5273 6.54999 30.6479 6.34868 30.7291C6.14738 30.8102 5.93186 30.8502 5.71486 30.8466C5.28648 30.8503 4.87327 30.6882 4.56169 30.394C4.40242 30.2564 4.2751 30.0857 4.18864 29.8938C4.10218 29.7018 4.05867 29.4933 4.06113 29.2828Z" fill="white"/>
<path d="M8.0249 30.7209V25.6184H9.3169L10.6863 29.5227L12.0728 25.6184H13.3582V30.7209H12.4137V26.8902L11.0915 30.7209H10.2878L8.96557 26.8902V30.7209H8.0249Z" fill="white"/>
<path d="M13.8198 30.7209L15.9486 25.6184H16.6872L18.8367 30.7209H17.7978L17.2444 29.398H15.4329L14.8663 30.7209H13.8198ZM15.7795 28.4796H16.8723L16.3264 26.9337L15.7795 28.4796Z" fill="white"/>
<path d="M19.3564 30.7209V25.6184H20.8373C20.9809 25.6184 21.1112 25.6184 21.2283 25.6316C21.3316 25.6385 21.4342 25.653 21.5353 25.6751C21.7663 25.7245 21.9821 25.8289 22.1643 25.9794C22.3466 26.1326 22.4933 26.3238 22.594 26.5397C22.7004 26.7558 22.756 26.9933 22.7564 27.2342C22.7565 27.3318 22.7473 27.4293 22.7291 27.5252C22.7068 27.6302 22.6752 27.733 22.6346 27.8323C22.5699 28.0196 22.4685 28.1922 22.3362 28.3397C22.2154 28.4703 22.0733 28.5792 21.9159 28.6619C21.7605 28.74 21.5962 28.799 21.4267 28.8377L22.8065 30.7275H21.6429L20.3037 28.763V30.7209H19.3564ZM20.3009 28.044H20.8175C20.951 28.047 21.0844 28.0346 21.2151 28.0071C21.3478 27.981 21.4713 27.9204 21.5731 27.8314C21.6486 27.7606 21.7083 27.6747 21.7483 27.5793C21.7883 27.4839 21.8078 27.3811 21.8054 27.2776C21.8061 27.1673 21.7832 27.0581 21.7383 26.9573C21.6911 26.8559 21.619 26.7681 21.5287 26.7022C21.4295 26.6297 21.3158 26.5797 21.1953 26.5557C21.1547 26.5491 21.1008 26.5435 21.0432 26.5387C20.9856 26.534 20.9091 26.5321 20.8241 26.5321H20.3037L20.3009 28.044Z" fill="white"/>
<path d="M23.8829 30.7209V26.5359H22.9385V25.6184H25.7794V26.5359H24.8274V30.7246L23.8829 30.7209Z" fill="white"/>
<path d="M30.4897 30.7587V25.6279H31.4417V29.8365H33.0114V30.7587H30.4897Z" fill="white"/>
<path d="M35.9532 25.5296C36.5726 25.5285 37.1731 25.7424 37.6525 26.1348C38.1319 26.5271 38.4605 27.0737 38.5822 27.6813C38.7039 28.2889 38.6112 28.9199 38.3199 29.4668C38.0286 30.0137 37.5568 30.4425 36.9848 30.6803C36.4128 30.9181 35.7761 30.95 35.1833 30.7707C34.5904 30.5914 34.078 30.2119 33.7335 29.6969C33.389 29.1819 33.2337 28.5633 33.294 27.9466C33.3543 27.3299 33.6265 26.7532 34.0643 26.3148C34.3087 26.0615 34.6024 25.8612 34.9273 25.7261C35.2522 25.5911 35.6014 25.5242 35.9532 25.5296ZM35.9532 26.4518C35.7259 26.4482 35.5004 26.4917 35.2907 26.5795C35.081 26.6673 34.8918 26.7975 34.7349 26.962C34.5725 27.1223 34.4443 27.3137 34.3577 27.5248C34.2712 27.7359 34.2283 27.9623 34.2315 28.1904C34.2294 28.4204 34.2735 28.6484 34.3611 28.861C34.4487 29.0736 34.5781 29.2665 34.7415 29.4282C34.8968 29.5941 35.0844 29.7263 35.2929 29.8167C35.5013 29.9071 35.726 29.9537 35.9532 29.9537C36.1804 29.9537 36.4051 29.9071 36.6135 29.8167C36.8219 29.7263 37.0096 29.5941 37.1649 29.4282C37.3283 29.2665 37.4577 29.0736 37.5453 28.861C37.6329 28.6484 37.6769 28.4204 37.6749 28.1904C37.6793 27.9613 37.6369 27.7337 37.5504 27.5215C37.4638 27.3093 37.3349 27.117 37.1715 26.9564C37.014 26.793 36.8245 26.6639 36.6149 26.5771C36.4053 26.4903 36.18 26.4476 35.9532 26.4518Z" fill="white"/>
<path d="M44.322 27.1342H43.1887C43.0363 26.9208 42.8327 26.7492 42.5965 26.6353C42.3625 26.5159 42.1037 26.4531 41.841 26.452C41.4046 26.4502 40.9827 26.6081 40.6548 26.8961C40.4713 27.0587 40.324 27.258 40.2222 27.481C40.1185 27.7013 40.0637 27.9414 40.0616 28.185C40.0605 28.4036 40.1036 28.6202 40.1882 28.8218C40.2733 29.0288 40.397 29.2177 40.5528 29.3784C40.7235 29.5616 40.9307 29.7071 41.161 29.8055C41.3885 29.9039 41.6337 29.9547 41.8816 29.9547C42.1883 29.9521 42.4882 29.8641 42.7476 29.7006C43.0166 29.5415 43.2356 29.31 43.3795 29.0325H41.2346V28.1424H44.5799V28.2549C44.5849 28.6078 44.5149 28.9578 44.3746 29.2816C44.2342 29.6055 44.0267 29.8958 43.7658 30.1333C43.2437 30.6192 42.5567 30.8885 41.8436 30.8866C41.1306 30.8846 40.445 30.6117 39.9256 30.1229C39.6627 29.8821 39.4538 29.5883 39.3128 29.2607C39.1718 28.9331 39.1019 28.5793 39.1078 28.2227C39.102 27.8662 39.1706 27.5123 39.3094 27.1838C39.4481 26.8553 39.6538 26.5594 39.9134 26.315C40.1648 26.0617 40.4646 25.8616 40.795 25.7267C41.1253 25.5918 41.4795 25.5248 41.8363 25.5298C42.3634 25.5279 42.88 25.6775 43.3247 25.9607C43.7765 26.2321 44.1269 26.6444 44.322 27.1342Z" fill="white"/>
<path d="M45.2031 30.7587V25.6279H46.1561V30.7587H45.2031Z" fill="white"/>
<path d="M46.7726 29.314H47.7652C47.7632 29.4037 47.7813 29.4927 47.8183 29.5745C47.8552 29.6562 47.91 29.7287 47.9786 29.7865C48.1189 29.9014 48.2961 29.9615 48.4773 29.9556C48.564 29.9566 48.6501 29.9415 48.7314 29.9112C48.8119 29.8807 48.8857 29.8348 48.9486 29.7761C49.0124 29.7169 49.0629 29.6449 49.0967 29.5647C49.1306 29.4846 49.1471 29.3982 49.145 29.3112C49.1503 29.1521 49.1024 28.9959 49.009 28.8671C48.9156 28.7577 48.8004 28.6688 48.6709 28.6063C48.5344 28.543 48.394 28.4885 48.2506 28.4428C48.09 28.3933 47.9323 28.3347 47.7784 28.2671C47.6239 28.1935 47.4834 28.0938 47.3629 27.9722C47.2367 27.8412 47.1373 27.6868 47.0701 27.5177C47.0351 27.4328 47.008 27.3449 46.9889 27.2551C46.9706 27.1661 46.9615 27.0756 46.9615 26.9848C46.9574 26.79 46.9949 26.5965 47.0715 26.4173C47.148 26.2381 47.2618 26.0772 47.4054 25.9454C47.6922 25.6703 48.0762 25.5199 48.4735 25.5268C48.6684 25.5256 48.8615 25.5631 49.0418 25.637C49.222 25.711 49.3859 25.82 49.5237 25.9577C49.6664 26.0882 49.7798 26.2475 49.8565 26.425C49.9331 26.6025 49.9713 26.7943 49.9686 26.9877H48.993C48.9933 26.9158 48.9779 26.8447 48.9479 26.7795C48.9178 26.7142 48.8739 26.6562 48.8192 26.6097C48.7097 26.5079 48.5653 26.4521 48.4159 26.4538C48.3474 26.4515 48.2792 26.4642 48.2161 26.491C48.153 26.5177 48.0964 26.5579 48.0504 26.6088C47.9562 26.7153 47.9065 26.854 47.9116 26.9962C47.9095 27.1195 47.9529 27.2392 48.0334 27.3325C48.1279 27.4412 48.3026 27.5366 48.5557 27.6207C48.851 27.7215 49.026 27.7845 49.0808 27.8097C49.2506 27.8818 49.4096 27.9772 49.553 28.0932C49.7295 28.2307 49.8708 28.4082 49.9652 28.6111C50.0597 28.814 50.1045 29.0365 50.0961 29.2601C50.0996 29.4753 50.0579 29.6888 49.9738 29.8869C49.8897 30.085 49.765 30.2632 49.6078 30.4101C49.4528 30.5633 49.2688 30.6841 49.0666 30.7652C48.8644 30.8463 48.6479 30.8862 48.4301 30.8825C47.9993 30.8867 47.5837 30.7238 47.2703 30.428C47.1116 30.2896 46.9849 30.1182 46.8989 29.9258C46.813 29.7335 46.7699 29.5247 46.7726 29.314Z" fill="white"/>
<path d="M51.277 30.7587V26.5502H50.3325V25.6279H53.1866V26.5502H52.2261V30.7587H51.277Z" fill="white"/>
<path d="M53.6699 30.7587V25.6279H54.6229V30.7587H53.6699Z" fill="white"/>
<path d="M59.2864 29.3612H60.3877C60.1939 29.8256 59.8567 30.2157 59.4253 30.4743C59.0018 30.7433 58.5102 30.8856 58.0086 30.8844C57.6574 30.889 57.309 30.8207 56.9855 30.6837C56.662 30.5468 56.3704 30.3442 56.1291 30.0888C55.878 29.841 55.6797 29.5449 55.5461 29.2183C55.4125 28.8917 55.3465 28.5415 55.3519 28.1886C55.3477 27.8397 55.4146 27.4936 55.5485 27.1715C55.6825 26.8493 55.8807 26.5578 56.131 26.3149C56.3697 26.0637 56.6574 25.8644 56.9764 25.7293C57.2953 25.5942 57.6387 25.5263 57.985 25.5297C58.5029 25.5279 59.0106 25.6745 59.4479 25.9521C59.8855 26.2181 60.2259 26.618 60.4188 27.0925H59.3337C59.1701 26.8935 58.9647 26.7329 58.7321 26.6222C58.4995 26.5115 58.2454 26.4533 57.9878 26.4519C57.7637 26.4497 57.5416 26.4952 57.3363 26.5852C57.131 26.6753 56.9471 26.808 56.7969 26.9744C56.6351 27.1391 56.5076 27.3341 56.4217 27.5484C56.3357 27.7626 56.2931 27.9918 56.2963 28.2226C56.2949 28.4487 56.3389 28.6728 56.4257 28.8815C56.5125 29.0903 56.6403 29.2794 56.8016 29.4378C56.9528 29.6027 57.1367 29.7342 57.3416 29.8239C57.5466 29.9135 57.7679 29.9594 57.9916 29.9584C58.2304 29.9589 58.4664 29.907 58.6829 29.8063C58.9113 29.699 59.1164 29.5477 59.2864 29.3612Z" fill="white"/>
<path d="M60.6525 29.3141H61.646C61.6438 29.4038 61.6619 29.4929 61.6988 29.5747C61.7358 29.6565 61.7907 29.7289 61.8595 29.7866C61.9994 29.9015 62.1763 29.9616 62.3572 29.9557C62.4442 29.9566 62.5306 29.9416 62.6122 29.9113C62.6924 29.8809 62.7659 29.835 62.8285 29.7762C62.8924 29.7171 62.943 29.6451 62.9771 29.5649C63.0111 29.4848 63.0277 29.3983 63.0259 29.3113C63.0311 29.1522 62.9832 28.996 62.8899 28.8672C62.7961 28.7577 62.6807 28.6688 62.5508 28.6064C62.4143 28.543 62.274 28.4884 62.1305 28.4429C61.9698 28.3935 61.8122 28.3348 61.6583 28.2672C61.5037 28.1938 61.3631 28.0941 61.2427 27.9724C61.1166 27.8413 61.0171 27.6869 60.95 27.5179C60.9147 27.4329 60.8872 27.345 60.8678 27.2552C60.8499 27.1662 60.841 27.0757 60.8414 26.9849C60.8371 26.7901 60.8745 26.5965 60.9511 26.4173C61.0276 26.238 61.1416 26.0772 61.2852 25.9455C61.5717 25.6703 61.9554 25.5198 62.3525 25.5269C62.5475 25.5256 62.7408 25.563 62.9212 25.637C63.1017 25.7109 63.2656 25.82 63.4036 25.9578C63.5468 26.0881 63.6608 26.2472 63.7381 26.4247C63.8155 26.6023 63.8543 26.7941 63.8522 26.9878H62.8729C62.8733 26.916 62.8581 26.8449 62.8283 26.7796C62.7984 26.7143 62.7546 26.6564 62.7 26.6098C62.5906 26.508 62.4462 26.4522 62.2967 26.4539C62.2281 26.4515 62.1597 26.4641 62.0964 26.4909C62.0331 26.5177 61.9764 26.5579 61.9303 26.6089C61.8361 26.7154 61.7864 26.8541 61.7915 26.9963C61.7894 27.1196 61.8327 27.2393 61.9133 27.3327C62.0077 27.4413 62.1825 27.5367 62.4356 27.6208C62.7312 27.7219 62.9078 27.7853 62.9607 27.8098C63.1305 27.8819 63.2894 27.9773 63.4329 28.0933C63.6093 28.2309 63.7504 28.4084 63.8447 28.6113C63.939 28.8142 63.9836 29.0367 63.975 29.2603C63.9786 29.4754 63.9371 29.6888 63.8532 29.8869C63.7692 30.085 63.6447 30.2632 63.4877 30.4102C63.3328 30.5636 63.1488 30.6844 62.9466 30.7655C62.7443 30.8467 62.5278 30.8865 62.31 30.8826C61.8795 30.8866 61.4642 30.7237 61.1511 30.4281C60.9921 30.2898 60.8652 30.1185 60.779 29.9261C60.6929 29.7337 60.6497 29.5249 60.6525 29.3141Z" fill="white"/>
</g>
<defs>
<clipPath id="clip0_1_2080">
<rect width="68" height="33" fill="white"/>
</clipPath>
</defs>
</svg>
